<?xml version="1.0" standalone="no"?>
<!DOCTYPE svg PUBLIC "-//W3C//DTD SVG 20010904//EN"
 "http://www.w3.org/TR/2001/REC-SVG-20010904/DTD/svg10.dtd">
<svg version="1.0" xmlns="http://www.w3.org/2000/svg"
 width="1024.000000pt" height="1024.000000pt" viewBox="0 0 1024.000000 1024.000000"
 preserveAspectRatio="xMidYMid meet">
<metadata>
Created by potrace 1.16, written by Peter Selinger 2001-2019
</metadata>
<g transform="translate(0.000000,1024.000000) scale(0.100000,-0.100000)"
fill="#000000" stroke="none">
<path d="M5451 8584 c-112 -51 -178 -118 -382 -383 -42 -54 -83 -77 -166 -92
-106 -20 -155 -56 -197 -149 -34 -74 -46 -159 -46 -323 0 -182 -8 -198 -124
-242 -74 -27 -123 -77 -142 -142 -28 -96 -6 -189 93 -386 31 -63 46 -108 53
-160 10 -76 44 -235 51 -240 199 -146 247 -231 257 -456 5 -124 5 -125 44
-187 59 -94 88 -187 98 -317 17 -198 9 -547 -12 -547 -5 0 -51 86 -103 191
-126 255 -130 274 -121 573 12 400 -18 507 -171 614 -81 56 -99 88 -118 208
-36 224 -70 309 -146 364 -53 38 -96 46 -183 32 -93 -14 -126 1 -178 81 -98
149 -115 172 -150 200 -53 43 -125 48 -210 16 -88 -33 -142 -29 -268 19 -139
52 -200 65 -296 61 -120 -6 -192 -49 -242 -144 -23 -44 -26 -61 -26 -145 1
-150 46 -238 176 -345 209 -172 224 -201 188 -353 -24 -101 -25 -116 -3 -182
37 -115 139 -187 370 -259 193 -60 209 -79 215 -241 4 -109 21 -149 77 -187
55 -37 96 -44 311 -53 308 -13 392 -39 511 -160 113 -115 231 -383 233 -529 1
-74 1 -75 -32 -94 -18 -10 -99 -32 -180 -48 -347 -68 -543 -166 -729 -363
-130 -138 -217 -307 -266 -520 -29 -127 -31 -411 -3 -536 55 -252 161 -447
333 -611 100 -95 210 -168 420 -278 389 -203 528 -317 619 -509 55 -114 80
-152 100 -152 25 0 58 44 115 152 43 82 71 120 139 189 107 109 157 142 437
290 279 149 351 197 474 319 157 156 260 335 316 547 35 133 44 401 19 537
-70 368 -264 641 -566 795 -136 70 -219 97 -419 137 -97 19 -189 43 -206 53
-72 41 -68 120 15 286 109 219 220 309 417 336 57 8 111 7 233 -5 258 -26 330
-20 390 31 45 37 58 71 69 168 17 147 43 170 236 211 195 41 261 70 332 147
62 67 73 115 59 258 -14 146 0 171 147 271 138 95 191 148 234 236 35 71 38
82 38 166 0 83 -3 96 -31 146 -39 69 -101 115 -185 136 -78 20 -145 15 -322
-27 -142 -33 -164 -32 -262 19 -105 53 -186 29 -274 -82 -84 -106 -143 -164
-176 -172 -18 -4 -54 -1 -95 9 -87 23 -107 22 -168 -9 -89 -44 -138 -129 -187
-326 -45 -176 -63 -204 -161 -249 -75 -34 -120 -77 -151 -146 -33 -71 -49
-157 -78 -406 -24 -208 -40 -292 -70 -362 -18 -44 -114 -210 -169 -290 l-40
-60 -7 35 c-13 62 -29 337 -29 499 0 176 12 239 61 332 29 53 64 99 283 369
46 57 104 141 128 185 l43 80 -3 100 c-9 256 -9 246 21 295 15 25 59 88 97
140 39 52 91 136 115 185 59 120 78 204 73 325 -5 117 -26 166 -127 292 -38
48 -74 102 -81 120 -9 21 -16 120 -20 283 -7 269 -13 299 -67 378 -54 78 -152
98 -252 51z"/>
</g>
</svg>
